<mxfile host="app.diagrams.net" modified="2022-07-02T03:20:40.456Z" agent="5.0 (Windows NT 10.0; Win64; x64) AppleWebKit/537.36 (KHTML, like Gecko) Chrome/103.0.0.0 Safari/537.36" etag="FfrIy9RiRXEUBjkWjJW-" version="20.0.4" type="github">
  <diagram id="0Z73pY4IB6rDH_3XxNzB" name="Page-1">
    <mxGraphModel dx="496" dy="281" grid="1" gridSize="10" guides="1" tooltips="1" connect="1" arrows="1" fold="1" page="1" pageScale="1" pageWidth="827" pageHeight="1169" math="0" shadow="0">
      <root>
        <mxCell id="0" />
        <mxCell id="1" parent="0" />
        <mxCell id="GcdY2UCKhB0W2esVHv_a-9" style="edgeStyle=orthogonalEdgeStyle;rounded=0;orthogonalLoop=1;jettySize=auto;html=1;exitX=0;exitY=0.5;exitDx=0;exitDy=0;entryX=0.5;entryY=0;entryDx=0;entryDy=0;" edge="1" parent="1" source="GcdY2UCKhB0W2esVHv_a-1" target="GcdY2UCKhB0W2esVHv_a-3">
          <mxGeometry relative="1" as="geometry" />
        </mxCell>
        <mxCell id="GcdY2UCKhB0W2esVHv_a-21" value="Data" style="edgeLabel;html=1;align=center;verticalAlign=middle;resizable=0;points=[];" vertex="1" connectable="0" parent="GcdY2UCKhB0W2esVHv_a-9">
          <mxGeometry x="-0.2234" y="-1" relative="1" as="geometry">
            <mxPoint as="offset" />
          </mxGeometry>
        </mxCell>
        <mxCell id="GcdY2UCKhB0W2esVHv_a-1" value="Parent" style="rounded=0;whiteSpace=wrap;html=1;" vertex="1" parent="1">
          <mxGeometry x="350" y="120" width="120" height="60" as="geometry" />
        </mxCell>
        <mxCell id="GcdY2UCKhB0W2esVHv_a-11" style="edgeStyle=orthogonalEdgeStyle;rounded=0;orthogonalLoop=1;jettySize=auto;html=1;" edge="1" parent="1" source="GcdY2UCKhB0W2esVHv_a-3" target="GcdY2UCKhB0W2esVHv_a-6">
          <mxGeometry relative="1" as="geometry" />
        </mxCell>
        <mxCell id="GcdY2UCKhB0W2esVHv_a-13" style="edgeStyle=orthogonalEdgeStyle;rounded=0;orthogonalLoop=1;jettySize=auto;html=1;exitX=0.5;exitY=1;exitDx=0;exitDy=0;" edge="1" parent="1" source="GcdY2UCKhB0W2esVHv_a-3" target="GcdY2UCKhB0W2esVHv_a-5">
          <mxGeometry relative="1" as="geometry" />
        </mxCell>
        <mxCell id="GcdY2UCKhB0W2esVHv_a-22" value="Data" style="edgeLabel;html=1;align=center;verticalAlign=middle;resizable=0;points=[];" vertex="1" connectable="0" parent="GcdY2UCKhB0W2esVHv_a-13">
          <mxGeometry x="-0.8868" y="1" relative="1" as="geometry">
            <mxPoint y="7" as="offset" />
          </mxGeometry>
        </mxCell>
        <mxCell id="GcdY2UCKhB0W2esVHv_a-23" value="Data" style="edgeLabel;html=1;align=center;verticalAlign=middle;resizable=0;points=[];" vertex="1" connectable="0" parent="GcdY2UCKhB0W2esVHv_a-13">
          <mxGeometry x="-0.8868" y="1" relative="1" as="geometry">
            <mxPoint x="42" y="26" as="offset" />
          </mxGeometry>
        </mxCell>
        <mxCell id="GcdY2UCKhB0W2esVHv_a-24" value="Data" style="edgeLabel;html=1;align=center;verticalAlign=middle;resizable=0;points=[];" vertex="1" connectable="0" parent="GcdY2UCKhB0W2esVHv_a-13">
          <mxGeometry x="-0.8868" y="1" relative="1" as="geometry">
            <mxPoint x="-42" y="26" as="offset" />
          </mxGeometry>
        </mxCell>
        <mxCell id="GcdY2UCKhB0W2esVHv_a-3" value="Children" style="rounded=0;whiteSpace=wrap;html=1;" vertex="1" parent="1">
          <mxGeometry x="170" y="200" width="120" height="60" as="geometry" />
        </mxCell>
        <mxCell id="GcdY2UCKhB0W2esVHv_a-5" value="Children" style="rounded=0;whiteSpace=wrap;html=1;" vertex="1" parent="1">
          <mxGeometry x="264" y="330" width="120" height="60" as="geometry" />
        </mxCell>
        <mxCell id="GcdY2UCKhB0W2esVHv_a-6" value="Children" style="rounded=0;whiteSpace=wrap;html=1;" vertex="1" parent="1">
          <mxGeometry x="90" y="330" width="120" height="60" as="geometry" />
        </mxCell>
        <mxCell id="GcdY2UCKhB0W2esVHv_a-15" value="Children" style="rounded=0;whiteSpace=wrap;html=1;" vertex="1" parent="1">
          <mxGeometry x="520" y="200" width="120" height="60" as="geometry" />
        </mxCell>
        <mxCell id="GcdY2UCKhB0W2esVHv_a-16" style="edgeStyle=orthogonalEdgeStyle;rounded=0;orthogonalLoop=1;jettySize=auto;html=1;exitX=1;exitY=0.5;exitDx=0;exitDy=0;entryX=0.5;entryY=0;entryDx=0;entryDy=0;" edge="1" target="GcdY2UCKhB0W2esVHv_a-15" parent="1" source="GcdY2UCKhB0W2esVHv_a-1">
          <mxGeometry relative="1" as="geometry">
            <mxPoint x="700" y="150" as="sourcePoint" />
          </mxGeometry>
        </mxCell>
        <mxCell id="GcdY2UCKhB0W2esVHv_a-26" value="Data" style="edgeLabel;html=1;align=center;verticalAlign=middle;resizable=0;points=[];" vertex="1" connectable="0" parent="GcdY2UCKhB0W2esVHv_a-16">
          <mxGeometry x="-0.432" y="1" relative="1" as="geometry">
            <mxPoint as="offset" />
          </mxGeometry>
        </mxCell>
        <mxCell id="GcdY2UCKhB0W2esVHv_a-17" style="edgeStyle=orthogonalEdgeStyle;rounded=0;orthogonalLoop=1;jettySize=auto;html=1;exitX=0.5;exitY=1;exitDx=0;exitDy=0;" edge="1" source="GcdY2UCKhB0W2esVHv_a-15" target="GcdY2UCKhB0W2esVHv_a-20" parent="1">
          <mxGeometry relative="1" as="geometry" />
        </mxCell>
        <mxCell id="GcdY2UCKhB0W2esVHv_a-28" value="Data" style="edgeLabel;html=1;align=center;verticalAlign=middle;resizable=0;points=[];" vertex="1" connectable="0" parent="GcdY2UCKhB0W2esVHv_a-17">
          <mxGeometry x="-0.1272" y="1" relative="1" as="geometry">
            <mxPoint as="offset" />
          </mxGeometry>
        </mxCell>
        <mxCell id="GcdY2UCKhB0W2esVHv_a-18" style="edgeStyle=orthogonalEdgeStyle;rounded=0;orthogonalLoop=1;jettySize=auto;html=1;" edge="1" source="GcdY2UCKhB0W2esVHv_a-15" target="GcdY2UCKhB0W2esVHv_a-19" parent="1">
          <mxGeometry relative="1" as="geometry" />
        </mxCell>
        <mxCell id="GcdY2UCKhB0W2esVHv_a-27" value="Data" style="edgeLabel;html=1;align=center;verticalAlign=middle;resizable=0;points=[];" vertex="1" connectable="0" parent="GcdY2UCKhB0W2esVHv_a-18">
          <mxGeometry x="0.0762" y="-2" relative="1" as="geometry">
            <mxPoint as="offset" />
          </mxGeometry>
        </mxCell>
        <mxCell id="GcdY2UCKhB0W2esVHv_a-29" value="Data" style="edgeLabel;html=1;align=center;verticalAlign=middle;resizable=0;points=[];" vertex="1" connectable="0" parent="GcdY2UCKhB0W2esVHv_a-18">
          <mxGeometry x="-0.8762" y="-1" relative="1" as="geometry">
            <mxPoint as="offset" />
          </mxGeometry>
        </mxCell>
        <mxCell id="GcdY2UCKhB0W2esVHv_a-19" value="Children" style="rounded=0;whiteSpace=wrap;html=1;" vertex="1" parent="1">
          <mxGeometry x="440" y="330" width="120" height="60" as="geometry" />
        </mxCell>
        <mxCell id="GcdY2UCKhB0W2esVHv_a-20" value="Children" style="rounded=0;whiteSpace=wrap;html=1;" vertex="1" parent="1">
          <mxGeometry x="614" y="330" width="120" height="60" as="geometry" />
        </mxCell>
      </root>
    </mxGraphModel>
  </diagram>
</mxfile>
